<?xml version="1.0" encoding="UTF-8" standalone="no"?>

<!--
   Copyright 2018 Chronoscope
   Licensed under the Apache License, Version 2.0 (the "License");
   you may not use this file except in compliance with the License.
   You may obtain a copy of the License at
       http://www.apache.org/licenses/LICENSE-2.0
   Unless required by applicable law or agreed to in writing, software
   distributed under the License is distributed on an "AS IS" BASIS,
   WITHOUT WARRANTIES OR CONDITIONS OF ANY KIND, either express or implied.
   See the License for the specific language governing permissions and
   limitations under the License.
-->

<svg
   xmlns:dc="http://purl.org/dc/elements/1.1/"
   xmlns:cc="http://creativecommons.org/ns#"
   xmlns:rdf="http://www.w3.org/1999/02/22-rdf-syntax-ns#"
   xmlns:svg="http://www.w3.org/2000/svg"
   xmlns="http://www.w3.org/2000/svg"
   version="1.1"
   id="svg2"
   viewBox="0 0 1052.3622 744.09448"
   height="210mm"
   width="297mm">
  <defs
     id="defs4" />
  <metadata
     id="metadata7">
    <rdf:RDF>
      <cc:Work
         rdf:about="">
        <dc:format>image/svg+xml</dc:format>
        <dc:type
           rdf:resource="http://purl.org/dc/dcmitype/StillImage" />
        <dc:title></dc:title>
      </cc:Work>
    </rdf:RDF>
  </metadata>
  <g
     transform="translate(0,-308.26772)"
     id="layer1">
    <path
       id="path4261"
       d="M -61.428571,1120.9336 607.14286,855.21935 995.71429,692.3622 l 91.42861,34.28572 -1.4286,419.99998 z"
       style="fill:#453427;fill-rule:evenodd;stroke:none;stroke-width:1px;stroke-linecap:butt;stroke-linejoin:miter;stroke-opacity:1;fill-opacity:1" />
    <path
       id="path4238"
       d="m 891.16072,295.66577 84.26783,50.22099 46.34075,19.06663 57.0736,-16.66751 -2.5254,-66.67007 z"
       style="fill:#4d4844;fill-rule:evenodd;stroke:none;stroke-width:1px;stroke-linecap:butt;stroke-linejoin:miter;stroke-opacity:1;fill-opacity:1" />
    <path
       id="path4222"
       d="m 975.55482,345.50796 22.98097,1.01015 -26.75007,222.98695 -16.47322,-0.22322 z"
       style="fill:#615c5b;fill-opacity:1;fill-rule:evenodd;stroke:none;stroke-width:1px;stroke-linecap:butt;stroke-linejoin:miter;stroke-opacity:1" />
    <path
       id="path4216"
       d="m 742.20958,301.06125 3.03046,4.79822 100.25764,51.51778 -17.17259,220.21326 127.3892,-8.79974 20,-222.85714 -167.85715,-99.28572 z"
       style="fill:#8c878b;fill-rule:evenodd;stroke:none;stroke-width:1px;stroke-linecap:butt;stroke-linejoin:miter;stroke-opacity:1;fill-opacity:1" />
    <path
       id="path4198"
       d="m 836.91138,357.88233 15.65737,-3.03046 -18.81875,215.90319 -11.51786,0.26785 z"
       style="fill:#5c5853;fill-opacity:1;fill-rule:evenodd;stroke:none;stroke-width:1px;stroke-linecap:butt;stroke-linejoin:miter;stroke-opacity:1" />
    <path
       id="path4214"
       d="m 718.21846,824.89985 221.22341,-100.87784 2.0203,-18.22335 -223.24371,88.89342 z"
       style="fill:#454035;fill-rule:evenodd;stroke:none;stroke-width:1px;stroke-linecap:butt;stroke-linejoin:miter;stroke-opacity:1;fill-opacity:1" />
    <path
       id="path4212"
       d="m 641.875,877.98721 83.00136,-40.5529 -0.94887,-29.94744 -85.7132,35.23247 z"
       style="fill:#575446;fill-opacity:1;fill-rule:evenodd;stroke:none;stroke-width:1px;stroke-linecap:butt;stroke-linejoin:miter;stroke-opacity:1" />
    <path
       id="path4206"
       d="m 711.97897,797.68647 229.98828,-91.80659 13.63706,-133.84521 -126.77415,4.54568 -8.08122,79.80205 -121.2183,24.24367 z"
       style="fill:#5e5b46;fill-opacity:1;fill-rule:evenodd;stroke:none;stroke-width:1px;stroke-linecap:butt;stroke-linejoin:miter;stroke-opacity:1" />
    <path
       id="path4194"
       d="m 727.81491,669.26185 90.40865,-17.42513 0.50508,4.29315 16.41498,0.25253 -108.5914,21.97082 z"
       style="fill:#7c8076;fill-rule:evenodd;stroke:none;stroke-width:1px;stroke-linecap:butt;stroke-linejoin:miter;stroke-opacity:1;fill-opacity:1" />
    <path
       id="path4192"
       d="m 835.64869,656.3824 -109.34901,21.46575 -1.51523,7.57614 111.8744,-24.24366 z"
       style="fill:#6d6e65;fill-rule:evenodd;stroke:none;stroke-width:1px;stroke-linecap:butt;stroke-linejoin:miter;stroke-opacity:1;fill-opacity:1" />
    <path
       id="path4188"
       d="m 735.13852,584.91411 -12.94073,223.64944 -83.79932,36.92659 6.02249,-259.64317 z"
       style="fill:#75745f;fill-opacity:1;fill-rule:evenodd;stroke:none;stroke-width:1px;stroke-linecap:butt;stroke-linejoin:miter;stroke-opacity:1" />
    <path
       id="path4162"
       d="M -5.0000091,303.2551 237.38585,300.80871 250.51783,589.71234 -19.192898,588.70218 Z"
       style="fill:#9c9597;fill-rule:evenodd;stroke:none;stroke-width:1px;stroke-linecap:butt;stroke-linejoin:miter;stroke-opacity:1;fill-opacity:1" />
    <path
       id="path4160"
       d="m 233.34524,298.7884 13.13198,288.90363 10.10153,0 -17.1726,-293.95439 z"
       style="fill:#858381;fill-rule:evenodd;stroke:none;stroke-width:1px;stroke-linecap:butt;stroke-linejoin:miter;stroke-opacity:1;fill-opacity:1" />
    <path
       id="path4166"
       d="m 250.51783,771.03472 -9.09137,2.0203 0,13.63706 369.21075,-74.75129 0,-7.07106 z"
       style="fill:#6e6a62;fill-rule:evenodd;stroke:none;stroke-width:1px;stroke-linecap:butt;stroke-linejoin:miter;stroke-opacity:1;fill-opacity:1" />
    <path
       id="path4210"
       d="m 639.28572,840.93363 3.03571,36.875 -43.03571,-6.51786 -0.71429,-39.28571 z"
       style="fill:#403c31;fill-opacity:1;fill-rule:evenodd;stroke:none;stroke-width:1px;stroke-linecap:butt;stroke-linejoin:miter;stroke-opacity:1" />
    <path
       id="path4208"
       d="m 599.77807,836.94717 -0.75761,34.09265 -625.284426,268.19548 6.060915,-81.8223 z"
       style="fill:#4f473d;fill-rule:evenodd;stroke:none;stroke-width:1px;stroke-linecap:butt;stroke-linejoin:miter;stroke-opacity:1;fill-opacity:1" />
    <path
       id="path4190"
       d="M -13.59681,600.76031 250.01276,593.24787 249.52781,781.2588 614.17275,709.41541 600.17857,837.00506 -26.263966,1073.5754 Z"
       style="fill:#7a7361;fill-opacity:1;fill-rule:evenodd;stroke:none;stroke-width:1px;stroke-linecap:butt;stroke-linejoin:miter;stroke-opacity:1" />
    <path
       id="path4164"
       d="m 245.35714,595.93363 3.57143,176.42857 10.71428,-6.07143 -3.57142,-174.64285 z"
       style="fill:#7d7773;fill-rule:evenodd;stroke:none;stroke-width:1px;stroke-linecap:butt;stroke-linejoin:miter;stroke-opacity:1;fill-opacity:1" />
    <path
       id="path4158"
       d="m -23.233509,579.61081 281.832559,0 7.07107,10.10153 -11.11168,9.09137 -277.791949,5.05076 z"
       style="fill:#736e64;fill-rule:evenodd;stroke:none;stroke-width:1px;stroke-linecap:butt;stroke-linejoin:miter;stroke-opacity:1;fill-opacity:1" />
    <path
       id="path4170"
       d="m 252.85714,751.64792 335.71429,-59.28572 14.36337,9.60334 7.70241,3.15672 -360.87699,66.29127 z"
       style="fill:#86877e;fill-rule:evenodd;stroke:none;stroke-width:1px;stroke-linecap:butt;stroke-linejoin:miter;stroke-opacity:1;fill-opacity:1" />
    <path
       id="path4168"
       d="m 586.78571,586.82649 -1.42857,114.28572 7.14286,2.14285 10.17857,-1.78571 0.83158,-112.5 z"
       style="fill:#6e6b5d;fill-opacity:1;fill-rule:evenodd;stroke:none;stroke-width:1px;stroke-linecap:butt;stroke-linejoin:miter;stroke-opacity:1" />
    <path
       id="path4180"
       d="m 608.82397,574.71799 6.89032,-281.6415 -22.85715,5.71428 -3.27927,279.28572 z"
       style="fill:#7d7b7c;fill-opacity:1;fill-rule:evenodd;stroke:none;stroke-width:1px;stroke-linecap:butt;stroke-linejoin:miter;stroke-opacity:1" />
    <path
       id="path4174"
       d="m 589.42401,574.30751 21.2132,-0.75761 -2.0203,16.66751 -21.2132,-1.76776 z"
       style="fill:#72736c;fill-rule:evenodd;stroke:none;stroke-width:1px;stroke-linecap:butt;stroke-linejoin:miter;stroke-opacity:1;fill-opacity:1" />
    <path
       id="path4172"
       d="m 597.00015,292.72749 -9.09137,409.11178 -12.12183,-5.05076 12.42734,-404.78345 z"
       style="fill:#656660;fill-rule:evenodd;stroke:none;stroke-width:1px;stroke-linecap:butt;stroke-linejoin:miter;stroke-opacity:1;fill-opacity:1" />
    <path
       id="path4182"
       d="M 615.48527,297.29907 665,299.50506 651.25898,575.12897 608.61691,573.80243 Z"
       style="fill:#88898c;fill-rule:evenodd;stroke:none;stroke-width:1px;stroke-linecap:butt;stroke-linejoin:miter;stroke-opacity:1;fill-opacity:1" />
    <path
       id="path4176"
       d="m 610.13214,573.5499 40.15356,1.01015 -2.0203,14.64721 -40.91118,0.50508 z"
       style="fill:#6a6e66;fill-rule:evenodd;stroke:none;stroke-width:1px;stroke-linecap:butt;stroke-linejoin:miter;stroke-opacity:1;fill-opacity:1" />
    <path
       id="path4184"
       d="m 748.01796,296.26302 -17.17259,279.81226 -79.68465,-1.12379 13.66071,-274.19643 z"
       style="fill:#9b9ca1;fill-rule:evenodd;stroke:none;stroke-width:1px;stroke-linecap:butt;stroke-linejoin:miter;stroke-opacity:1;fill-opacity:1" />
    <path
       id="path4178"
       d="m 650.2857,573.29736 85.86297,-0.75762 3.78807,4.04061 -0.75761,4.79823 -4.54569,3.78807 -86.87312,2.27284 z"
       style="fill:#777a73;fill-opacity:1;fill-rule:evenodd;stroke:none;stroke-width:1px;stroke-linecap:butt;stroke-linejoin:miter;stroke-opacity:1" />
    <path
       id="path4196"
       d="m 826.55732,654.10956 5.80838,-73.74113 -10.82851,-0.89286 -4.07124,77.91699 9.59645,-0.50508 z"
       style="fill:#69675b;fill-opacity:1;fill-rule:evenodd;stroke:none;stroke-width:1px;stroke-linecap:butt;stroke-linejoin:miter;stroke-opacity:1" />
    <path
       id="path4200"
       d="m 745.24004,318.99145 92.70639,39.44217 14.46429,-3.57142 -107.67576,-49.76034 z"
       style="fill:#4b4d47;fill-opacity:1;fill-rule:evenodd;stroke:none;stroke-width:1px;stroke-linecap:butt;stroke-linejoin:miter;stroke-opacity:1" />
    <path
       id="path4204"
       d="m 834.28572,570.39792 122.12053,-1.62947 -1.04911,6.45089 -121.96428,5.44643 z"
       style="fill:#6d706b;fill-opacity:1;fill-rule:evenodd;stroke:none;stroke-width:1px;stroke-linecap:butt;stroke-linejoin:miter;stroke-opacity:1" />
    <path
       id="path4202"
       d="m 820.24387,570.2669 -0.25254,9.59645 13.63706,0.75761 1.01015,-10.10152 z"
       style="fill:#6e6d67;fill-rule:evenodd;stroke:none;stroke-width:1px;stroke-linecap:butt;stroke-linejoin:miter;stroke-opacity:1;fill-opacity:1" />
    <path
       id="path4220"
       d="m 970.40936,576.04371 -16.83793,151.03278 -14.86607,-2.76786 15.23578,-149.14022 z"
       style="fill:#574d38;fill-opacity:1;fill-rule:evenodd;stroke:none;stroke-width:1px;stroke-linecap:butt;stroke-linejoin:miter;stroke-opacity:1" />
    <path
       id="path4186"
       d="m 603.06107,589.71234 -2.83657,246.99761 40.25817,7.53019 4.87854,-255.41169 z"
       style="fill:#6b695a;fill-opacity:1;fill-rule:evenodd;stroke:none;stroke-width:1px;stroke-linecap:butt;stroke-linejoin:miter;stroke-opacity:1" />
    <path
       id="path4224"
       d="m 998.35046,346.38547 7.58704,5.97673 -25.37524,217.1484 -8.82708,0.0618 z"
       style="fill:#575250;fill-opacity:1;fill-rule:evenodd;stroke:none;stroke-width:1px;stroke-linecap:butt;stroke-linejoin:miter;stroke-opacity:1" />
    <path
       id="path4228"
       d="m 980.74083,576.22321 -17.87288,147.81806 -9.37586,3.16176 16.86506,-152.25154 z"
       style="fill:#5e553f;fill-opacity:1;fill-rule:evenodd;stroke:none;stroke-width:1px;stroke-linecap:butt;stroke-linejoin:miter;stroke-opacity:1" />
    <path
       id="path4230"
       d="m 1005.7268,352.65563 62.0044,-13.46113 0,231.32494 -87.88323,-2.02031 z"
       style="fill:#5e5a59;fill-rule:evenodd;stroke:none;stroke-width:1px;stroke-linecap:butt;stroke-linejoin:miter;stroke-opacity:1;fill-opacity:1" />
    <path
       id="path4234"
       d="m 1055.8619,722.04232 -91.41876,-13.13198 16.16244,-135.36044 83.59012,2.52538 z"
       style="fill:#665945;fill-rule:evenodd;stroke:none;stroke-width:1px;stroke-linecap:butt;stroke-linejoin:miter;stroke-opacity:1;fill-opacity:1" />
    <path
       id="path4232"
       d="m 980.53572,568.25506 -0.35715,8.03571 82.50193,2.30989 -2.0203,-8.5863 z"
       style="fill:#615c50;fill-rule:evenodd;stroke:none;stroke-width:1px;stroke-linecap:butt;stroke-linejoin:miter;stroke-opacity:1;fill-opacity:1" />
    <path
       id="path4218"
       d="m 956.31728,568.82564 16.45962,0.68365 -0.18558,7.08507 -18.1451,-1.30733 z"
       style="fill:#595547;fill-opacity:1;fill-rule:evenodd;stroke:none;stroke-width:1px;stroke-linecap:butt;stroke-linejoin:miter;stroke-opacity:1" />
    <path
       id="path4226"
       d="m 972.56313,569.53755 8.15116,-0.21106 -0.37788,7.00668 -7.88468,0.15195 z"
       style="fill:#61584d;fill-opacity:1;fill-rule:evenodd;stroke:none;stroke-width:1px;stroke-linecap:butt;stroke-linejoin:miter;stroke-opacity:1" />
    <path
       id="path4236"
       d="m 1057.6297,738.20476 -97.73224,-13.13198 3.94591,-16.22558 93.53383,13.44766 0.2525,17.67767 z"
       style="fill:#4a4446;fill-opacity:1;fill-rule:evenodd;stroke:none;stroke-width:1px;stroke-linecap:butt;stroke-linejoin:miter;stroke-opacity:1" />
    <g
       transform="translate(15.571437,62.485861)"
       id="layer1-3">
      <path
         style="fill:#28201d;fill-opacity:1;fill-rule:evenodd;stroke:none;stroke-width:1px;stroke-linecap:butt;stroke-linejoin:miter;stroke-opacity:1"
         d="m 466.69048,876.59566 -3.03046,21.71828 9.59645,-5.05076 0.50507,-18.18275 z"
         id="path4171" />
      <path
         style="fill:#2a2426;fill-opacity:1;fill-rule:evenodd;stroke:none;stroke-width:1px;stroke-linecap:butt;stroke-linejoin:miter;stroke-opacity:1"
         d="m 481.96903,787.32343 c 0,0 23.88558,-3.11901 37.24938,0.50507 22.34962,6.06092 30.93592,21.97082 30.93592,21.97082 z"
         id="path4153" />
      <path
         style="fill:#7f7576;fill-opacity:1;fill-rule:evenodd;stroke:none;stroke-width:1px;stroke-linecap:butt;stroke-linejoin:miter;stroke-opacity:1"
         d="m 323.03571,806.64792 119.10715,-32.5 163.21429,53.92857 -122.50001,48.92857 z"
         id="path4147" />
      <path
         style="fill:#16110e;fill-opacity:1;fill-rule:evenodd;stroke:none;stroke-width:1px;stroke-linecap:butt;stroke-linejoin:miter;stroke-opacity:1"
         d="m 438.4062,1021.5526 -9.59644,-162.63461 8.58629,4.04061 8.5863,160.1092 z"
         id="path4161" />
      <path
         style="fill:#241c1e;fill-opacity:1;fill-rule:evenodd;stroke:none;stroke-width:1px;stroke-linecap:butt;stroke-linejoin:miter;stroke-opacity:1"
         d="m 323.24882,806.70573 0.50507,7.89182 160.35325,72.22894 -0.53571,-9.82143 z"
         id="path4149" />
      <path
         style="fill:#392c25;fill-opacity:1;fill-rule:evenodd;stroke:none;stroke-width:1px;stroke-linecap:butt;stroke-linejoin:miter;stroke-opacity:1"
         d="M 491.78572,879.50506 477.5,1089.5051 490,1089.1479 504.64286,874.14792 Z"
         id="path4155" />
      <path
         style="fill:#42362e;fill-opacity:1;fill-rule:evenodd;stroke:none;stroke-width:1px;stroke-linecap:butt;stroke-linejoin:miter;stroke-opacity:1"
         d="M 572.85714,846.29077 578.57143,1062.3622 590,1060.2194 580,843.79077 Z"
         id="path4159" />
      <path
         style="fill:#36211d;fill-opacity:1;fill-rule:evenodd;stroke:none;stroke-width:1px;stroke-linecap:butt;stroke-linejoin:miter;stroke-opacity:1"
         d="m 604.95511,828.10834 -0.37881,8.83883 -120.46069,49.87628 -0.82075,-9.78585 z"
         id="path4151" />
      <path
         style="fill:#34251e;fill-opacity:1;fill-rule:evenodd;stroke:none;stroke-width:1px;stroke-linecap:butt;stroke-linejoin:miter;stroke-opacity:1"
         d="m 360.62446,928.11344 -3.03046,151.52286 6.56599,3.5356 4.04061,-153.03816 z"
         id="path4165" />
      <path
         style="fill:#1d160e;fill-opacity:1;fill-rule:evenodd;stroke:none;stroke-width:1px;stroke-linecap:butt;stroke-linejoin:miter;stroke-opacity:1"
         d="m 348.57143,821.64792 -16.42857,259.64288 c 0,0 7.85714,3.9286 8.21428,2.5 0.35715,-1.4286 17.5,-257.14288 17.5,-257.14288 z"
         id="path4157" />
      <path
         style="fill:#422e25;fill-opacity:1;fill-rule:evenodd;stroke:none;stroke-width:1px;stroke-linecap:butt;stroke-linejoin:miter;stroke-opacity:1"
         d="m 442.44682,976.60076 1.51522,117.68274 8.08122,1.5153 -1.51522,-122.73357 z"
         id="path4167" />
      <path
         style="fill:#322827;fill-opacity:1;fill-rule:evenodd;stroke:none;stroke-width:1px;stroke-linecap:butt;stroke-linejoin:miter;stroke-opacity:1"
         d="m 545.59967,858.8462 -3.65283,67.24693 c 0,0 5.05076,3.53554 5.55584,0.50508 0.50508,-3.03046 6.38742,-71.31293 6.38742,-71.31293 z"
         id="path4169" />
      <path
         style="fill:#2f2221;fill-opacity:1;fill-rule:evenodd;stroke:none;stroke-width:1px;stroke-linecap:butt;stroke-linejoin:miter;stroke-opacity:1"
         d="m 526.28948,935.68958 9.09137,117.17772 9.09137,-5.0508 -9.59645,-116.16753 z"
         id="path4173" />
      <path
         style="fill:#2a1c13;fill-opacity:1;fill-rule:evenodd;stroke:none;stroke-width:1px;stroke-linecap:butt;stroke-linejoin:miter;stroke-opacity:1"
         d="m 458.60926,1012.9662 10.10152,-6.5659 -2.52538,-35.86045 -9.59645,-0.50508 z"
         id="path4175" />
      <path
         style="fill:#251c1e;fill-opacity:1;fill-rule:evenodd;stroke:none;stroke-width:1px;stroke-linecap:butt;stroke-linejoin:miter;stroke-opacity:1"
         d="m 459.11433,885.18196 -102.02541,41.92133 91.41881,63.13453 108.08632,-66.16499 z"
         id="path4163" />
      <path
         style="fill:#28201d;fill-opacity:1;fill-rule:evenodd;stroke:none;stroke-width:1px;stroke-linecap:butt;stroke-linejoin:miter;stroke-opacity:1"
         d="m 867.82465,710.48378 -1.69634,12.15729 5.3718,-2.82727 0.28274,-10.1782 z"
         id="path4171-3" />
      <path
         style="fill:#2a2426;fill-opacity:1;fill-rule:evenodd;stroke:none;stroke-width:1px;stroke-linecap:butt;stroke-linejoin:miter;stroke-opacity:1"
         d="m 876.37718,660.51166 c 0,0 13.3705,-1.74593 20.85118,0.28273 12.51069,3.39273 17.31706,12.29865 17.31706,12.29865 z"
         id="path4153-6" />
      <path
         style="fill:#7f7576;fill-opacity:1;fill-rule:evenodd;stroke:none;stroke-width:1px;stroke-linecap:butt;stroke-linejoin:miter;stroke-opacity:1"
         d="m 787.41071,671.32898 66.67287,-18.1926 91.36284,30.18772 -68.5721,27.38885 z"
         id="path4147-1" />
      <path
         style="fill:#16110e;fill-opacity:1;fill-rule:evenodd;stroke:none;stroke-width:1px;stroke-linecap:butt;stroke-linejoin:miter;stroke-opacity:1"
         d="m 851.99193,791.62664 -5.37185,-91.03833 4.80637,2.26182 4.80638,89.62468 z"
         id="path4161-0" />
      <path
         style="fill:#241c1e;fill-opacity:1;fill-rule:evenodd;stroke:none;stroke-width:1px;stroke-linecap:butt;stroke-linejoin:miter;stroke-opacity:1"
         d="m 787.53,671.36134 0.28273,4.41762 89.7613,40.43176 -0.29987,-5.49777 z"
         id="path4149-6" />
      <path
         style="fill:#392c25;fill-opacity:1;fill-rule:evenodd;stroke:none;stroke-width:1px;stroke-linecap:butt;stroke-linejoin:miter;stroke-opacity:1"
         d="m 881.8723,712.11238 -7.99674,117.55219 6.99715,-0.19995 8.19664,-120.35101 z"
         id="path4155-3" />
      <path
         style="fill:#42362e;fill-opacity:1;fill-rule:evenodd;stroke:none;stroke-width:1px;stroke-linecap:butt;stroke-linejoin:miter;stroke-opacity:1"
         d="m 927.25382,693.51994 3.1987,120.95079 6.39742,-1.19948 -5.59773,-121.15074 z"
         id="path4159-2" />
      <path
         style="fill:#36211d;fill-opacity:1;fill-rule:evenodd;stroke:none;stroke-width:1px;stroke-linecap:butt;stroke-linejoin:miter;stroke-opacity:1"
         d="m 945.22139,683.34192 -0.21204,4.94774 -67.43056,27.91936 -0.45946,-5.47785 z"
         id="path4151-0" />
      <path
         style="fill:#34251e;fill-opacity:1;fill-rule:evenodd;stroke:none;stroke-width:1px;stroke-linecap:butt;stroke-linejoin:miter;stroke-opacity:1"
         d="m 808.45184,739.32201 -1.69633,84.81828 3.6754,1.97913 2.26188,-85.6665 z"
         id="path4165-6" />
      <path
         style="fill:#1d160e;fill-opacity:1;fill-rule:evenodd;stroke:none;stroke-width:1px;stroke-linecap:butt;stroke-linejoin:miter;stroke-opacity:1"
         d="m 801.7049,679.72556 -9.19626,145.34087 c 0,0 4.39823,2.19912 4.59813,1.39943 0.19989,-0.79969 9.79601,-143.94144 9.79601,-143.94144 z"
         id="path4157-1" />
      <path
         style="fill:#422e25;fill-opacity:1;fill-rule:evenodd;stroke:none;stroke-width:1px;stroke-linecap:butt;stroke-linejoin:miter;stroke-opacity:1"
         d="m 854.25375,766.46387 0.84817,65.87551 4.52363,0.84823 -0.84817,-68.70281 z"
         id="path4167-5" />
      <path
         style="fill:#322827;fill-opacity:1;fill-rule:evenodd;stroke:none;stroke-width:1px;stroke-linecap:butt;stroke-linejoin:miter;stroke-opacity:1"
         d="m 911.99583,700.54813 -2.04474,37.64296 c 0,0 2.8273,1.9791 3.10999,0.28273 0.28274,-1.69636 3.57554,-39.919 3.57554,-39.919 z"
         id="path4169-5" />
      <path
         style="fill:#2f2221;fill-opacity:1;fill-rule:evenodd;stroke:none;stroke-width:1px;stroke-linecap:butt;stroke-linejoin:miter;stroke-opacity:1"
         d="m 901.18651,743.56292 5.08912,65.59282 5.08911,-2.82729 -5.37185,-65.02735 z"
         id="path4173-4" />
      <path
         style="fill:#2a1c13;fill-opacity:1;fill-rule:evenodd;stroke:none;stroke-width:1px;stroke-linecap:butt;stroke-linejoin:miter;stroke-opacity:1"
         d="m 863.30101,786.82021 5.65454,-3.6754 -1.41359,-20.07366 -5.37185,-0.28274 z"
         id="path4175-7" />
      <path
         style="fill:#251c1e;fill-opacity:1;fill-rule:evenodd;stroke:none;stroke-width:1px;stroke-linecap:butt;stroke-linejoin:miter;stroke-opacity:1"
         d="m 863.58376,715.29016 -57.111,23.46639 51.17371,35.34099 60.50372,-37.03735 z"
         id="path4163-6" />
      <path
         style="fill:#28201d;fill-opacity:1;fill-rule:evenodd;stroke:none;stroke-width:1px;stroke-linecap:butt;stroke-linejoin:miter;stroke-opacity:1"
         d="m 707.73568,779.80551 -2.35752,16.89533 7.46541,-3.92914 0.39294,-14.14493 z"
         id="path4171-5" />
      <path
         style="fill:#2a2426;fill-opacity:1;fill-rule:evenodd;stroke:none;stroke-width:1px;stroke-linecap:butt;stroke-linejoin:miter;stroke-opacity:1"
         d="m 719.62138,710.35784 c 0,0 18.58128,-2.42637 28.9774,0.39291 17.38653,4.71498 24.06608,17.09179 24.06608,17.09179 z"
         id="path4153-69" />
      <path
         style="fill:#7f7576;fill-opacity:1;fill-rule:evenodd;stroke:none;stroke-width:1px;stroke-linecap:butt;stroke-linejoin:miter;stroke-opacity:1"
         d="M 595.9821,725.39097 688.63933,700.1082 815.60885,742.06093 720.31226,780.124 Z"
         id="path4147-3" />
      <path
         style="fill:#16110e;fill-opacity:1;fill-rule:evenodd;stroke:none;stroke-width:1px;stroke-linecap:butt;stroke-linejoin:miter;stroke-opacity:1"
         d="m 685.73243,892.57206 -7.46534,-126.51856 6.67955,3.14331 6.67956,124.55397 z"
         id="path4161-7" />
      <path
         style="fill:#241c1e;fill-opacity:1;fill-rule:evenodd;stroke:none;stroke-width:1px;stroke-linecap:butt;stroke-linejoin:miter;stroke-opacity:1"
         d="m 596.14788,725.43594 0.39293,6.1393 124.74386,56.18915 -0.41673,-7.64039 z"
         id="path4149-4" />
      <path
         style="fill:#392c25;fill-opacity:1;fill-rule:evenodd;stroke:none;stroke-width:1px;stroke-linecap:butt;stroke-linejoin:miter;stroke-opacity:1"
         d="m 727.25802,782.06882 -11.11329,163.36564 9.72414,-0.27788 11.39117,-167.25524 z"
         id="path4155-5" />
      <path
         style="fill:#42362e;fill-opacity:1;fill-rule:evenodd;stroke:none;stroke-width:1px;stroke-linecap:butt;stroke-linejoin:miter;stroke-opacity:1"
         d="m 790.32608,756.23039 4.44534,168.08874 8.89059,-1.66695 -7.77932,-168.36662 z"
         id="path4159-25" />
      <path
         style="fill:#36211d;fill-opacity:1;fill-rule:evenodd;stroke:none;stroke-width:1px;stroke-linecap:butt;stroke-linejoin:miter;stroke-opacity:1"
         d="m 815.29605,742.0857 -0.29468,6.87601 -93.71016,38.80032 -0.63845,-7.61272 z"
         id="path4151-4" />
      <path
         style="fill:#34251e;fill-opacity:1;fill-rule:evenodd;stroke:none;stroke-width:1px;stroke-linecap:butt;stroke-linejoin:miter;stroke-opacity:1"
         d="m 625.22361,819.88281 -2.35752,117.8744 5.10789,2.75046 3.14331,-119.05321 z"
         id="path4165-7" />
      <path
         style="fill:#1d160e;fill-opacity:1;fill-rule:evenodd;stroke:none;stroke-width:1px;stroke-linecap:butt;stroke-linejoin:miter;stroke-opacity:1"
         d="M 615.8472,737.05994 603.06688,939.0443 c 0,0 6.11228,3.05618 6.39016,1.94483 0.2778,-1.11136 13.6138,-200.03953 13.6138,-200.03953 z"
         id="path4157-4" />
      <path
         style="fill:#422e25;fill-opacity:1;fill-rule:evenodd;stroke:none;stroke-width:1px;stroke-linecap:butt;stroke-linejoin:miter;stroke-opacity:1"
         d="m 688.87574,857.60262 1.1788,91.54911 6.28662,1.1788 -1.17872,-95.47831 z"
         id="path4167-4" />
      <path
         style="fill:#322827;fill-opacity:1;fill-rule:evenodd;stroke:none;stroke-width:1px;stroke-linecap:butt;stroke-linejoin:miter;stroke-opacity:1"
         d="m 769.12162,765.99765 -2.84163,52.3135 c 0,0 3.9291,2.7504 4.32203,0.39291 0.39294,-2.35749 4.96896,-55.47656 4.96896,-55.47656 z"
         id="path4169-3" />
      <path
         style="fill:#2f2221;fill-opacity:1;fill-rule:evenodd;stroke:none;stroke-width:1px;stroke-linecap:butt;stroke-linejoin:miter;stroke-opacity:1"
         d="m 754.09961,825.77653 7.07248,91.15622 7.07241,-3.92918 -7.46534,-90.37036 z"
         id="path4173-0" />
      <path
         style="fill:#2a1c13;fill-opacity:1;fill-rule:evenodd;stroke:none;stroke-width:1px;stroke-linecap:butt;stroke-linejoin:miter;stroke-opacity:1"
         d="m 701.44906,885.89243 7.85827,-5.10782 -1.96459,-27.89697 -7.46534,-0.39291 z"
         id="path4175-78" />
      <path
         style="fill:#251c1e;fill-opacity:1;fill-rule:evenodd;stroke:none;stroke-width:1px;stroke-linecap:butt;stroke-linejoin:miter;stroke-opacity:1"
         d="m 701.84199,786.48506 -79.36884,32.61192 71.11763,49.11433 84.08373,-51.47182 z"
         id="path4163-68" />
      <path
         style="fill:#28201d;fill-opacity:1;fill-rule:evenodd;stroke:none;stroke-width:1px;stroke-linecap:butt;stroke-linejoin:miter;stroke-opacity:1"
         d="m 97.883954,1005.339 -3.138135,22.4899 9.937421,-5.2302 0.52302,-18.8288 z"
         id="path4171-50" />
      <path
         style="fill:#2a2426;fill-opacity:1;fill-rule:evenodd;stroke:none;stroke-width:1px;stroke-linecap:butt;stroke-linejoin:miter;stroke-opacity:1"
         d="m 113.70537,912.89469 c 0,0 24.73425,-3.22982 38.57288,0.52304 23.14373,6.27625 32.03511,22.75145 32.03511,22.75145 z"
         id="path4153-4" />
      <path
         style="fill:#7f7576;fill-opacity:1;fill-rule:evenodd;stroke:none;stroke-width:1px;stroke-linecap:butt;stroke-linejoin:miter;stroke-opacity:1"
         d="M -50.875006,932.90581 72.464133,899.25105 241.47759,955.09578 114.62503,1005.7629 Z"
         id="path4147-8" />
      <path
         style="fill:#16110e;fill-opacity:1;fill-rule:evenodd;stroke:none;stroke-width:1px;stroke-linecap:butt;stroke-linejoin:miter;stroke-opacity:1"
         d="m 68.594706,1155.4464 -9.937411,-168.4133 8.891369,4.1842 8.89138,165.7981 z"
         id="path4161-71" />
      <path
         style="fill:#241c1e;fill-opacity:1;fill-rule:evenodd;stroke:none;stroke-width:1px;stroke-linecap:butt;stroke-linejoin:miter;stroke-opacity:1"
         d="m -50.654326,932.96566 0.52302,8.1722 166.050746,74.79544 -0.55474,-10.1704 z"
         id="path4149-7" />
      <path
         style="fill:#392c25;fill-opacity:1;fill-rule:evenodd;stroke:none;stroke-width:1px;stroke-linecap:butt;stroke-linejoin:miter;stroke-opacity:1"
         d="m 123.87085,1008.3518 -14.7933,217.4615 12.94413,-0.3699 15.16314,-222.6392 z"
         id="path4155-2" />
      <path
         style="fill:#42362e;fill-opacity:1;fill-rule:evenodd;stroke:none;stroke-width:1px;stroke-linecap:butt;stroke-linejoin:miter;stroke-opacity:1"
         d="m 207.82282,973.95726 5.91732,223.74874 11.83464,-2.219 -10.35531,-224.11857 z"
         id="path4159-7" />
      <path
         style="fill:#36211d;fill-opacity:1;fill-rule:evenodd;stroke:none;stroke-width:1px;stroke-linecap:butt;stroke-linejoin:miter;stroke-opacity:1"
         d="m 241.06126,955.12871 -0.39227,9.15296 -124.74077,51.64843 -0.84992,-10.1335 z"
         id="path4151-2" />
      <path
         style="fill:#34251e;fill-opacity:1;fill-rule:evenodd;stroke:none;stroke-width:1px;stroke-linecap:butt;stroke-linejoin:miter;stroke-opacity:1"
         d="m -11.950695,1058.6872 -3.138135,156.9066 6.799286,3.6613 4.184176,-158.4758 z"
         id="path4165-2" />
      <path
         style="fill:#1d160e;fill-opacity:1;fill-rule:evenodd;stroke:none;stroke-width:1px;stroke-linecap:butt;stroke-linejoin:miter;stroke-opacity:1"
         d="m -24.431981,948.43877 -17.012285,268.86833 c 0,0 8.136304,4.0682 8.506133,2.5888 0.36984,-1.4793 18.121792,-266.27948 18.121792,-266.27948 z"
         id="path4157-6" />
      <path
         style="fill:#422e25;fill-opacity:1;fill-rule:evenodd;stroke:none;stroke-width:1px;stroke-linecap:butt;stroke-linejoin:miter;stroke-opacity:1"
         d="m 72.778893,1108.8974 1.569057,121.8641 8.368354,1.5691 -1.569057,-127.0944 z"
         id="path4167-1" />
      <path
         style="fill:#322827;fill-opacity:1;fill-rule:evenodd;stroke:none;stroke-width:1px;stroke-linecap:butt;stroke-linejoin:miter;stroke-opacity:1"
         d="m 179.59686,986.9588 -3.78261,69.6363 c 0,0 5.23021,3.6612 5.75324,0.523 0.52303,-3.1381 6.61437,-73.8468 6.61437,-73.8468 z"
         id="path4169-0" />
      <path
         style="fill:#2f2221;fill-opacity:1;fill-rule:evenodd;stroke:none;stroke-width:1px;stroke-linecap:butt;stroke-linejoin:miter;stroke-opacity:1"
         d="m 159.60056,1066.5326 9.4144,121.3411 9.4144,-5.2303 -9.93743,-120.295 z"
         id="path4173-6" />
      <path
         style="fill:#2a1c13;fill-opacity:1;fill-rule:evenodd;stroke:none;stroke-width:1px;stroke-linecap:butt;stroke-linejoin:miter;stroke-opacity:1"
         d="m 89.5156,1146.5549 10.460437,-6.7992 -2.615109,-37.1347 -9.937421,-0.5229 z"
         id="path4175-1" />
      <path
         style="fill:#251c1e;fill-opacity:1;fill-rule:evenodd;stroke:none;stroke-width:1px;stroke-linecap:butt;stroke-linejoin:miter;stroke-opacity:1"
         d="m 90.038616,1014.2304 -105.650472,43.4108 94.667009,65.3777 111.926737,-68.5159 z"
         id="path4163-5" />
    </g>
  </g>
</svg>
