<?xml version="1.0" encoding="UTF-8" standalone="no"?>

<!--
   Copyright 2018 Chronoscope
   Licensed under the Apache License, Version 2.0 (the "License");
   you may not use this file except in compliance with the License.
   You may obtain a copy of the License at
       http://www.apache.org/licenses/LICENSE-2.0
   Unless required by applicable law or agreed to in writing, software
   distributed under the License is distributed on an "AS IS" BASIS,
   WITHOUT WARRANTIES OR CONDITIONS OF ANY KIND, either express or implied.
   See the License for the specific language governing permissions and
   limitations under the License.
-->

<svg
   xmlns:dc="http://purl.org/dc/elements/1.1/"
   xmlns:cc="http://creativecommons.org/ns#"
   xmlns:rdf="http://www.w3.org/1999/02/22-rdf-syntax-ns#"
   xmlns:svg="http://www.w3.org/2000/svg"
   xmlns="http://www.w3.org/2000/svg"
   version="1.1"
   id="svg2"
   viewBox="0 0 744.09448819 1052.3622047"
   height="297mm"
   width="210mm">
  <defs
     id="defs4" />
  <metadata
     id="metadata7">
    <rdf:RDF>
      <cc:Work
         rdf:about="">
        <dc:format>image/svg+xml</dc:format>
        <dc:type
           rdf:resource="http://purl.org/dc/dcmitype/StillImage" />
        <dc:title></dc:title>
      </cc:Work>
    </rdf:RDF>
  </metadata>
  <g
     id="layer1">
    <circle
       r="204.37808"
       cy="516.54413"
       cx="373.13708"
       id="path4169"
       style="color:#000000;clip-rule:nonzero;display:inline;overflow:visible;visibility:visible;opacity:1;isolation:auto;mix-blend-mode:normal;color-interpolation:sRGB;color-interpolation-filters:linearRGB;solid-color:#000000;solid-opacity:1;fill:#288a3b;fill-opacity:1;fill-rule:nonzero;stroke:none;stroke-width:5;stroke-linecap:round;stroke-linejoin:miter;stroke-miterlimit:4;stroke-dasharray:none;stroke-dashoffset:0;stroke-opacity:1;color-rendering:auto;image-rendering:auto;shape-rendering:auto;text-rendering:auto;enable-background:accumulate" />
    <path
       id="path4136"
       d="M 372.85742 312.36133 A 204.28572 204.28572 0 0 0 217.42773 384.16797 C 218.06167 384.5589 218.25114 385.59139 218.91602 385.92383 C 219.08599 386.00883 219.32822 385.81842 219.48633 385.92383 C 219.93355 386.22198 220.17778 386.7663 220.625 387.06445 C 220.78311 387.16986 221.01503 387.00435 221.19531 387.06445 C 221.59843 387.19882 221.94141 387.47696 222.33594 387.63477 C 222.89389 387.85795 223.54688 387.87175 224.04688 388.20508 C 224.7177 388.6523 225.08503 389.46684 225.75586 389.91406 C 226.25586 390.2474 226.92931 390.21562 227.4668 390.48438 C 227.70717 390.60456 227.79674 390.93451 228.03711 391.05469 C 228.5746 391.32344 229.24804 391.29166 229.74805 391.625 C 230.41887 392.07221 230.82747 392.83229 231.45703 393.33594 C 231.78884 393.60139 232.2441 393.67054 232.59766 393.90625 C 232.82126 394.05532 232.95297 394.31531 233.16797 394.47656 C 233.7161 394.88766 234.33077 395.20413 234.87891 395.61523 C 235.3089 395.93772 235.57036 396.45771 236.01758 396.75586 C 236.37114 396.99156 236.75509 397.1918 237.1582 397.32617 C 237.33848 397.38627 237.5704 397.22076 237.72852 397.32617 C 238.50008 397.65051 238.76863 398.58989 239.43945 399.03711 C 239.79301 399.27281 240.23819 399.35246 240.57812 399.60742 C 240.71188 399.70774 242.79047 401.85227 242.85938 401.88672 C 243.19931 402.05669 243.63129 401.79452 244 401.88672 C 244.41224 401.98978 244.76056 402.267 245.14062 402.45703 C 245.52068 402.64706 245.91493 402.80872 246.2793 403.02734 C 246.86683 403.37986 247.4421 403.75687 247.99023 404.16797 C 248.20522 404.32921 248.32018 404.61809 248.56055 404.73828 C 248.73052 404.82328 248.96089 404.65328 249.13086 404.73828 C 249.37123 404.85846 249.4608 405.18645 249.70117 405.30664 C 249.87114 405.39164 250.10151 405.22164 250.27148 405.30664 C 250.51185 405.42683 250.64981 405.68692 250.83984 405.87695 C 251.40993 406.06698 252.01329 406.17853 252.55078 406.44727 C 253.03152 406.68765 253.1815 407.41792 253.69141 407.58789 C 254.05197 407.70808 254.45197 407.58789 254.83203 407.58789 C 255.40213 407.58789 255.982 407.47609 256.54102 407.58789 C 256.95769 407.67119 257.2694 408.05514 257.68164 408.1582 C 258.05035 408.2504 258.44959 408.0837 258.82227 408.1582 C 259.41153 408.27605 259.94199 408.61067 260.53125 408.72852 C 260.90393 408.80302 261.31898 408.58737 261.67188 408.72852 C 262.30804 408.98299 262.76998 409.56272 263.38281 409.86914 C 263.55278 409.95414 263.77287 409.80904 263.95312 409.86914 C 264.35625 410.00351 264.69063 410.30313 265.09375 410.4375 C 266.94229 411.05368 266.73919 411.00781 267.94336 411.00781 C 268.51345 411.00781 269.10123 410.86955 269.6543 411.00781 C 269.91502 411.07301 269.96389 411.51296 270.22461 411.57812 C 270.77768 411.71639 271.40428 411.3664 271.93359 411.57812 C 272.43264 411.77774 272.57517 412.51913 273.07422 412.71875 C 273.60353 412.93048 274.23209 412.58048 274.78516 412.71875 C 275.04588 412.78395 275.11509 413.16888 275.35547 413.28906 C 275.6954 413.45903 276.12543 413.19686 276.49414 413.28906 C 277.07713 413.43481 277.62209 413.71361 278.20508 413.85938 C 278.91813 414.03764 279.78836 413.62673 280.48633 413.85938 C 280.74128 413.94437 280.81432 414.3095 281.05469 414.42969 C 281.22466 414.51469 281.45503 414.34469 281.625 414.42969 C 281.86537 414.54987 281.97171 414.85093 282.19531 415 C 282.54887 415.2357 282.95588 415.37833 283.33594 415.56836 C 283.716 415.75839 284.05989 416.05534 284.47656 416.13867 C 285.03558 416.25048 285.61546 416.13867 286.18555 416.13867 C 286.37558 416.13867 286.58589 416.05367 286.75586 416.13867 C 286.99623 416.25886 287.0858 416.58879 287.32617 416.70898 C 287.68449 416.88813 289.24911 416.52982 289.60742 416.70898 C 289.8478 416.82916 289.91701 417.21412 290.17773 417.2793 C 290.7308 417.41757 291.3574 417.06757 291.88672 417.2793 C 292.38577 417.47892 292.64728 418.03986 293.02734 418.41992 C 293.21737 418.60995 293.34271 418.90525 293.59766 418.99023 C 293.95822 419.11042 294.37773 418.87005 294.73828 418.99023 C 294.99324 419.07523 295.06821 419.44036 295.30859 419.56055 C 295.47855 419.64555 295.70698 419.47555 295.87695 419.56055 C 296.11732 419.68073 296.25724 419.94083 296.44727 420.13086 C 296.6373 420.32089 296.86851 420.47561 297.01758 420.69922 C 297.25329 421.05278 297.35219 421.48628 297.58789 421.83984 C 297.73697 422.06344 298.07321 422.15521 298.1582 422.41016 C 298.27838 422.77072 298.0837 423.1781 298.1582 423.55078 C 298.27605 424.14004 298.56343 424.68196 298.72852 425.25977 C 298.94377 426.01314 299.08358 426.78765 299.29883 427.54102 C 300.98458 433.44112 298.50929 424.71465 301.00781 430.96094 C 301.14896 431.31382 300.91561 431.73284 301.00781 432.10156 C 301.83285 435.40174 301.57813 430.60412 301.57812 434.95312 C 301.57812 436.53406 301.49335 434.0418 302.14844 436.66211 C 302.25683 437.09564 302.14844 439.03628 302.14844 439.51367 L 302.14844 444.07422 L 302.14844 448.06445 C 302.14844 448.25867 302.0456 450.03716 302.14844 450.3457 C 302.28282 450.74882 302.61569 451.07213 302.71875 451.48438 C 302.9031 452.22181 302.37881 453.08578 302.71875 453.76562 C 303.61445 455.55703 304.05005 454.1467 304.42969 456.04492 C 304.61241 456.95853 304.24697 457.98287 304.42969 458.89648 C 304.6654 460.075 305.37272 461.1309 305.57031 462.31641 C 305.66401 462.87874 305.35858 463.49803 305.57031 464.02734 C 305.76992 464.52639 306.46861 464.68722 306.70898 465.16797 C 306.87895 465.50791 306.5888 465.94608 306.70898 466.30664 C 306.79398 466.5616 307.08927 466.68691 307.2793 466.87695 C 307.46933 467.44704 307.73175 467.99863 307.84961 468.58789 C 307.92411 468.96057 307.84961 469.34846 307.84961 469.72852 C 307.84961 469.91855 307.76461 470.12886 307.84961 470.29883 C 308.68844 471.9765 308.41992 469.41258 308.41992 472.00781 C 308.41992 472.16719 308.37532 474.77015 308.41992 474.85938 C 308.66029 475.34012 309.18049 475.61799 309.56055 475.99805 C 309.75058 476.18808 310.04588 476.31341 310.13086 476.56836 C 310.25105 476.92892 310.13086 477.32892 310.13086 477.70898 C 310.13086 478.49802 310.00504 480.62561 310.13086 481.12891 C 310.19606 481.38963 310.58098 481.45885 310.70117 481.69922 C 310.80506 481.90701 310.70117 484.22229 310.70117 484.55078 L 310.70117 490.25195 L 310.70117 493.67188 C 310.70117 494.05194 310.82135 494.45194 310.70117 494.8125 C 310.54209 495.28972 309.10417 496.06571 308.99023 496.52148 C 308.85196 497.07455 309.1285 497.67935 308.99023 498.23242 C 308.85987 498.75386 308.01957 498.86315 307.84961 499.37305 C 307.72942 499.73361 308.01957 500.17373 307.84961 500.51367 C 307.48905 501.23479 306.49923 501.50154 306.13867 502.22266 C 305.86992 502.76014 305.83905 503.3961 305.57031 503.93359 C 305.45012 504.17396 305.14908 504.28031 305 504.50391 C 304.7643 504.85747 304.6654 505.29097 304.42969 505.64453 C 304.13155 506.09175 303.52943 506.30246 303.28906 506.7832 C 303.20406 506.95317 303.37406 507.18355 303.28906 507.35352 C 303.16887 507.59389 302.80373 507.66888 302.71875 507.92383 C 302.59856 508.28439 302.81095 508.69574 302.71875 509.06445 C 302.61569 509.47669 302.33847 509.82502 302.14844 510.20508 C 301.95841 510.58514 301.81384 510.9902 301.57812 511.34375 C 301.27999 511.79097 300.73759 512.03713 300.43945 512.48438 C 300.20374 512.83793 300.10485 513.27144 299.86914 513.625 C 299.72007 513.84861 299.41902 513.95494 299.29883 514.19531 C 299.21383 514.36528 299.38383 514.59566 299.29883 514.76562 C 299.05846 515.24636 298.39857 515.42551 298.1582 515.90625 C 298.0737 516.07533 298.1582 518.77476 298.1582 519.32617 L 298.1582 522.17578 L 298.1582 523.31641 C 298.1582 523.50644 298.2432 523.71675 298.1582 523.88672 C 298.03801 524.12709 297.70808 524.21666 297.58789 524.45703 C 297.50289 524.627 297.58789 524.83731 297.58789 525.02734 C 297.58789 525.4074 297.68009 525.79926 297.58789 526.16797 C 297.48484 526.58021 297.15195 526.90352 297.01758 527.30664 C 296.95748 527.48691 297.10258 527.70698 297.01758 527.87695 C 296.8974 528.11732 296.56746 528.2069 296.44727 528.44727 C 296.36227 528.61724 296.44727 528.82755 296.44727 529.01758 C 296.44727 529.86612 296.53204 529.7459 295.87695 530.72852 C 295.5788 531.17574 294.90825 531.35729 294.73828 531.86719 C 294.6181 532.22775 294.85847 532.64725 294.73828 533.00781 C 294.65328 533.26276 294.28816 533.33776 294.16797 533.57812 C 293.89923 534.11563 293.82084 534.73111 293.59766 535.28906 C 293.79937 536.26211 292.76345 536.38522 292.45703 536.99805 C 292.37203 537.16802 292.51713 537.38808 292.45703 537.56836 C 292.32266 537.97147 292.02109 538.30586 291.88672 538.70898 C 291.82662 538.88926 291.93282 539.09495 291.88672 539.2793 C 291.74098 539.86229 291.46216 540.40724 291.31641 540.99023 C 291.27031 541.17459 291.31641 541.36856 291.31641 541.55859 L 291.31641 543.26953 C 291.31641 543.45956 291.37651 543.65956 291.31641 543.83984 C 290.40638 546.56993 290.74609 542.92657 290.74609 547.25977 L 290.74609 548.9707 C 290.74609 549.35076 290.88724 549.75845 290.74609 550.11133 C 290.49162 550.74749 289.86189 551.18415 289.60742 551.82031 C 289.3957 552.34963 289.60742 552.96116 289.60742 553.53125 L 289.60742 558.66211 L 289.60742 575.19531 L 289.60742 590.01758 L 289.60742 594.57812 L 289.60742 596.28906 C 289.60742 596.85915 289.74569 597.44498 289.60742 597.99805 C 289.54222 598.25877 289.1573 598.32799 289.03711 598.56836 C 288.95211 598.73833 289.03711 598.94864 289.03711 599.13867 C 289.03711 599.51873 289.1573 599.91874 289.03711 600.2793 C 288.95211 600.53425 288.58698 600.60924 288.4668 600.84961 C 288.07362 601.63597 289.15698 601.35998 287.89648 601.99023 C 287.72298 602.07703 286.44229 601.99023 286.18555 601.99023 L 281.05469 601.99023 L 277.63477 601.99023 C 277.06467 601.99023 276.46467 602.17051 275.92383 601.99023 C 275.4164 601.82109 274.72227 600.44844 274.21484 600.2793 C 273.85428 600.15911 273.45428 600.2793 273.07422 600.2793 C 272.88419 600.2793 272.67387 600.3643 272.50391 600.2793 C 272.26353 600.15911 272.17396 599.82917 271.93359 599.70898 C 271.76362 599.62398 271.53325 599.79398 271.36328 599.70898 C 271.12291 599.5888 271.01658 599.28774 270.79297 599.13867 C 270.43941 598.90297 270.00786 598.80406 269.6543 598.56836 C 269.20709 598.27021 268.96089 597.72588 268.51367 597.42773 C 267.80656 596.95633 266.93953 596.76047 266.23242 596.28906 C 266.00881 596.13999 265.85214 595.90878 265.66211 595.71875 L 263.95312 594.00781 C 263.7631 593.81778 263.53188 593.66111 263.38281 593.4375 C 263.1471 593.08394 263.0482 592.65041 262.8125 592.29688 C 262.66342 592.07326 262.43223 591.91855 262.24219 591.72852 L 260.53125 590.01758 C 260.34122 589.82754 260.11196 589.67088 259.96289 589.44727 C 259.72718 589.09372 259.64754 588.64658 259.39258 588.30664 C 259.07009 587.87665 258.58771 587.58573 258.25195 587.16602 C 257.82393 586.631 257.50958 586.01457 257.11133 585.45703 C 256.55907 584.68385 255.99394 583.91772 255.40039 583.17578 C 255.2325 582.96592 254.91702 582.86042 254.83203 582.60547 C 254.71185 582.24491 254.95222 581.82736 254.83203 581.4668 C 254.66207 580.95689 253.93178 580.80691 253.69141 580.32617 C 253.60641 580.1562 253.69141 579.94589 253.69141 579.75586 C 253.69141 579.3758 253.86138 578.95517 253.69141 578.61523 C 253.51743 578.26727 251.15804 576.08384 250.83984 575.76562 L 247.41992 572.34375 C 247.03985 571.96369 246.74019 571.48162 246.2793 571.20508 C 245.76401 570.8959 245.08561 570.94394 244.57031 570.63477 C 243.13557 569.77392 243.53096 568.95759 241.71875 568.35352 C 241.53847 568.29342 241.31841 568.26852 241.14844 568.35352 C 240.27906 568.78821 240.57814 569.85253 240.57812 570.63477 L 240.57812 576.33594 C 240.57812 577.96557 240.77596 579.36408 240.00977 580.89648 C 239.88958 581.13685 239.58853 581.24319 239.43945 581.4668 C 238.0589 583.53764 239.60596 581.86865 238.29883 583.17578 L 237.72852 583.74609 C 237.53849 583.93612 237.27839 584.07604 237.1582 584.31641 C 236.88946 584.8539 236.89707 585.51205 236.58789 586.02734 C 236.31136 586.48823 235.82733 586.78596 235.44727 587.16602 L 232.02734 590.58789 C 231.64728 590.96795 231.22249 591.30881 230.88672 591.72852 C 228.06007 595.26184 230.95401 591.91377 229.17773 594.57812 C 229.02866 594.80174 228.75649 594.92483 228.60742 595.14844 C 228.37172 595.50199 228.29206 595.94912 228.03711 596.28906 L 226.89648 597.42773 C 226.89648 597.61777 226.98148 597.82808 226.89648 597.99805 C 226.7763 598.23842 226.44636 598.32799 226.32617 598.56836 C 226.24117 598.73833 226.32617 598.94864 226.32617 599.13867 C 226.32617 599.51873 226.44636 599.91874 226.32617 600.2793 C 226.26577 600.46052 224.08683 602.49866 224.04688 602.55859 C 223.94146 602.71671 224.04688 602.93888 224.04688 603.12891 C 223.85684 603.50897 223.73151 603.92959 223.47656 604.26953 C 223.15407 604.69952 222.716 605.03009 222.33594 605.41016 L 221.19531 606.55078 C 220.81525 606.93084 220.5019 607.3913 220.05469 607.68945 C 219.70113 607.92515 219.31914 608.1254 218.91602 608.25977 C 218.59438 608.36698 217.57969 608.25977 217.20508 608.25977 L 214.35547 608.25977 L 210.36328 608.25977 C 210.10653 608.25977 208.8278 608.34647 208.6543 608.25977 C 208.41393 608.13958 208.32435 607.80963 208.08398 607.68945 C 207.91401 607.60445 207.68364 607.77445 207.51367 607.68945 C 207.24967 607.55745 205.56771 605.74545 205.23242 605.41016 L 203.52344 603.69922 C 203.33341 603.50919 203.07331 603.36928 202.95312 603.12891 C 202.86812 602.95894 203.01323 602.73887 202.95312 602.55859 C 202.68785 601.76277 201.6325 600.22939 201.24219 599.70898 C 201.08095 599.49399 200.79206 599.37904 200.67188 599.13867 C 200.58687 598.9687 200.75687 598.73833 200.67188 598.56836 C 200.55168 598.32799 200.25063 598.22166 200.10156 597.99805 C 199.86585 597.64449 199.79865 597.19117 199.5332 596.85938 C 199.02956 596.22982 198.39236 595.71853 197.82227 595.14844 C 197.63224 594.9584 197.37213 594.81853 197.25195 594.57812 C 197.16695 594.40815 197.31205 594.18809 197.25195 594.00781 C 196.84671 592.79211 196.46909 592.65659 195.54102 591.72852 C 195.35099 591.53849 195.21107 591.27839 194.9707 591.1582 C 194.80073 591.0732 194.59238 591.1582 194.40234 591.1582 C 194.21231 590.96817 194.0724 590.70807 193.83203 590.58789 C 193.49209 590.41792 193.03135 590.75786 192.69141 590.58789 C 192.21066 590.34752 192.03153 589.68764 191.55078 589.44727 L 189.83984 588.87695 C 189.64981 588.68692 189.51186 588.42682 189.27148 588.30664 C 189.10152 588.22164 188.8912 588.30664 188.70117 588.30664 C 188.13108 588.11661 187.50552 588.0455 186.99023 587.73633 C 186.52933 587.45979 186.2796 586.92015 185.84961 586.59766 C 185.91451 585.51766 184.5207 586.21737 184.14062 586.02734 C 183.65989 585.78697 183.48074 585.1271 183 584.88672 C 182.46251 584.61798 181.82655 584.58516 181.28906 584.31641 C 180.6944 584.01908 180.35715 583.20594 179.83008 582.77344 A 204.28572 204.28572 0 0 0 372.85742 720.93359 A 204.28572 204.28572 0 0 0 560.99219 595.73828 C 560.98679 595.73293 560.97596 595.72401 560.9707 595.71875 C 560.78066 595.52872 560.52058 595.38882 560.40039 595.14844 C 560.31539 594.97847 560.48539 594.74811 560.40039 594.57812 C 560.28021 594.33776 559.95027 594.24818 559.83008 594.00781 C 559.74508 593.83784 559.91508 593.60747 559.83008 593.4375 C 559.58971 592.95675 558.93178 592.77761 558.69141 592.29688 C 558.60641 592.12689 558.77641 591.89849 558.69141 591.72852 C 558.57122 591.48815 558.27017 591.38181 558.12109 591.1582 C 557.88539 590.80464 557.78649 590.37114 557.55078 590.01758 C 557.40171 589.79397 557.06547 589.70222 556.98047 589.44727 C 556.86028 589.08671 557.10066 588.66719 556.98047 588.30664 C 556.89548 588.05168 556.57804 587.94619 556.41016 587.73633 C 555.8166 586.99439 555.29278 586.19897 554.69922 585.45703 C 554.53134 585.24717 554.27798 585.11033 554.12891 584.88672 C 553.8932 584.53317 553.69492 584.1492 553.56055 583.74609 C 553.50045 583.56581 553.69492 583.31015 553.56055 583.17578 C 552.1759 581.79113 552.72275 583.34487 551.84961 582.03516 C 551.6139 581.68161 551.46933 581.27654 551.2793 580.89648 C 551.2793 580.70645 551.3643 580.49614 551.2793 580.32617 C 551.15911 580.0858 550.89902 579.94589 550.70898 579.75586 C 550.26369 579.31057 549.326 578.53685 548.99805 578.04492 C 548.76234 577.69136 548.61972 577.28436 548.42969 576.9043 C 548.42969 576.71427 548.51469 576.50591 548.42969 576.33594 C 548.18931 575.85519 547.52943 575.67606 547.28906 575.19531 C 547.20406 575.02535 547.37406 574.79497 547.28906 574.625 C 546.94701 573.94089 545.92018 573.59817 545.57812 572.91406 C 545.30939 572.37657 545.27656 571.74257 545.00781 571.20508 C 544.66576 570.52097 543.64089 570.17825 543.29883 569.49414 C 543.21383 569.32417 543.35893 569.10411 543.29883 568.92383 C 543.03009 568.1176 542.42694 567.45076 542.1582 566.64453 C 541.67841 565.20506 543.31589 567.23759 541.58789 564.93359 C 541.2654 564.5036 540.76977 564.22296 540.44727 563.79297 C 540.19232 563.45303 540.11266 563.0059 539.87695 562.65234 C 539.72788 562.42874 539.49667 562.27206 539.30664 562.08203 C 538.40928 561.18467 538.60469 561.5496 538.16797 559.80273 C 538.07577 559.43402 538.16797 559.04217 538.16797 558.66211 L 538.16797 555.8125 L 538.16797 551.25195 C 538.16797 550.87734 538.06076 549.86267 538.16797 549.54102 C 538.30235 549.13791 538.63327 548.81262 538.73633 548.40039 C 538.89711 547.75724 538.50743 546.12302 538.73633 545.55078 C 538.99079 544.91462 539.62249 544.476 539.87695 543.83984 C 539.94485 543.67022 539.87695 541.22399 539.87695 540.99023 L 539.87695 538.13867 L 539.87695 536.42773 C 539.87695 536.2377 539.83085 536.04372 539.87695 535.85938 C 540.0227 535.27639 540.30153 534.73143 540.44727 534.14844 C 540.53947 533.77973 540.35507 533.37652 540.44727 533.00781 C 540.59302 532.42482 540.74883 531.83632 541.01758 531.29883 C 541.31994 530.69411 541.85584 530.76292 542.1582 530.1582 C 542.42694 529.62071 542.58278 529.03026 542.72852 528.44727 C 542.77462 528.26291 542.64352 528.04691 542.72852 527.87695 C 542.84871 527.63657 543.17865 527.54702 543.29883 527.30664 C 543.56758 526.76916 542.61118 525.88475 543.86719 525.59766 C 544.21316 525.07869 545.32548 524.39201 545.57812 523.88672 C 545.66314 523.71675 545.57812 523.50644 545.57812 523.31641 L 546.14844 522.17578 C 546.59565 521.50496 547.37563 521.11178 547.85938 520.4668 C 548.11433 520.12686 548.19398 519.67973 548.42969 519.32617 C 548.57876 519.10256 548.80802 518.94589 548.99805 518.75586 L 550.70898 517.04492 C 551.32949 516.42442 552.35281 515.19058 552.99023 514.76562 C 553.14835 514.66021 553.38027 514.82573 553.56055 514.76562 C 553.96366 514.63126 554.34566 514.43102 554.69922 514.19531 C 555.5381 513.63606 556.14159 512.47331 556.98047 511.91406 C 557.13858 511.80865 557.39267 512.01947 557.55078 511.91406 C 557.998 511.61592 558.31134 511.15545 558.69141 510.77539 L 560.9707 508.49414 L 561.54102 507.92383 C 561.73105 507.7338 561.87096 507.47371 562.11133 507.35352 C 562.2813 507.26852 562.51167 507.43852 562.68164 507.35352 C 563.36575 507.01147 563.70651 505.98658 564.39062 505.64453 C 564.73057 505.47456 565.19132 505.8145 565.53125 505.64453 C 566.21536 505.30247 566.55808 504.27565 567.24219 503.93359 C 567.77968 503.66485 568.41368 503.63202 568.95117 503.36328 C 569.10253 503.2876 570.58641 501.80371 570.66211 501.65234 C 570.74711 501.48237 570.66211 501.27206 570.66211 501.08203 C 570.66211 500.892 570.74711 500.68364 570.66211 500.51367 C 570.54193 500.2733 570.21199 500.18373 570.0918 499.94336 C 570.0068 499.77339 570.0918 499.56308 570.0918 499.37305 L 568.95117 498.23242 C 568.7812 497.89248 569.04337 497.46052 568.95117 497.0918 C 568.84811 496.67957 568.51719 496.35626 568.38281 495.95312 C 568.20254 495.41229 568.56309 494.78303 568.38281 494.24219 C 568.36697 494.19465 567.33109 493.22011 567.24219 493.10156 C 566.83109 492.55343 566.51265 491.93876 566.10156 491.39062 C 565.77906 490.96064 565.20131 490.73269 564.96094 490.25195 C 564.87594 490.08198 565.09531 489.81602 564.96094 489.68164 C 564.22088 488.94158 563.58482 489.11133 562.68164 489.11133 C 562.49161 489.11133 562.2813 489.19633 562.11133 489.11133 C 561.87096 488.99115 561.78139 488.66121 561.54102 488.54102 C 561.00353 488.27228 560.36757 488.23944 559.83008 487.9707 C 559.58971 487.85051 559.50014 487.52057 559.25977 487.40039 C 558.91983 487.23042 558.46103 487.57035 558.12109 487.40039 C 557.88072 487.2802 557.74081 487.02011 557.55078 486.83008 C 556.89851 486.17781 556.87526 486.03655 555.83984 485.69141 C 555.47929 485.57122 555.03916 485.86138 554.69922 485.69141 C 554.45885 485.57122 554.38386 485.20609 554.12891 485.12109 C 553.76835 485.0009 553.35079 485.24127 552.99023 485.12109 C 552.48033 484.95112 552.29683 484.27862 551.84961 483.98047 C 551.49605 483.74477 551.08905 483.60019 550.70898 483.41016 C 550.51895 483.22013 550.36228 482.98891 550.13867 482.83984 C 549.78512 482.60413 549.32986 482.53498 548.99805 482.26953 C 545.54249 479.50507 549.03071 481.49148 545.57812 479.41992 C 545.21377 479.2013 544.84062 478.98398 544.4375 478.84961 C 543.95969 478.69034 542.53601 479.03852 542.1582 478.84961 C 541.67746 478.60924 541.46479 478.00712 541.01758 477.70898 C 538.13758 475.78898 541.00371 477.70436 539.30664 477.13867 C 538.90352 477.0043 538.54804 476.75839 538.16797 476.56836 C 537.78791 476.37833 537.36728 476.253 537.02734 475.99805 C 536.59735 475.67556 536.26678 475.23943 535.88672 474.85938 C 535.69668 474.66933 535.57137 474.37406 535.31641 474.28906 C 532.84813 473.4663 535.52702 475.37869 533.03711 473.71875 C 532.51815 473.37278 531.83146 472.26046 531.32617 472.00781 C 531.1562 471.92281 530.92583 472.09281 530.75586 472.00781 C 530.27512 471.76744 530.06245 471.16533 529.61523 470.86719 C 529.26167 470.63149 528.87772 470.4332 528.47461 470.29883 C 528.29433 470.23873 528.04063 470.4332 527.90625 470.29883 C 527.42177 469.81434 527.25011 469.07238 526.76562 468.58789 C 525.58605 467.40835 526.8113 470.39017 525.625 468.01758 C 524.90698 466.58152 527.78982 468.51027 524.48438 466.30664 C 524.32626 466.20123 524.10409 466.30664 523.91406 466.30664 C 523.534 466.30664 523.13595 466.42683 522.77539 466.30664 C 522.52044 466.22166 522.44545 465.85651 522.20508 465.73633 C 522.03511 465.65133 521.80474 465.82133 521.63477 465.73633 C 521.12947 465.48368 520.4428 464.37332 519.92383 464.02734 C 519.57028 463.79164 519.13675 463.69273 518.7832 463.45703 C 518.55959 463.30796 518.46979 462.97172 518.21484 462.88672 C 517.85428 462.76653 517.43478 463.0069 517.07422 462.88672 C 516.56431 462.71675 516.3808 462.04424 515.93359 461.74609 C 515.58003 461.51039 515.17303 461.36581 514.79297 461.17578 C 514.41291 460.98575 514.05545 460.73984 513.65234 460.60547 C 513.47206 460.54537 513.25395 460.69047 513.08398 460.60547 C 512.84361 460.48528 512.76863 460.12211 512.51367 460.03711 C 512.15311 459.91692 511.73361 460.15729 511.37305 460.03711 C 511.11809 459.95212 511.0431 459.58699 510.80273 459.4668 C 510.63276 459.3818 510.40239 459.5518 510.23242 459.4668 C 509.61935 459.16027 508.2361 457.96918 507.38281 457.75586 C 507.0141 457.66366 506.6109 457.84806 506.24219 457.75586 C 505.82995 457.6528 505.48162 457.37559 505.10156 457.18555 C 504.91153 456.99552 504.79197 456.68043 504.53125 456.61523 C 503.97818 456.47697 503.39237 456.61523 502.82227 456.61523 C 502.44221 456.61523 502.0422 456.73542 501.68164 456.61523 C 501.42669 456.53025 501.3517 456.16511 501.11133 456.04492 C 500.94136 455.95992 500.73106 456.04492 500.54102 456.04492 L 499.40039 454.90625 C 499.24228 454.80084 499.01443 454.95235 498.83008 454.90625 C 498.24709 454.7605 497.65858 454.60469 497.12109 454.33594 C 496.88072 454.21576 496.79115 453.88582 496.55078 453.76562 C 496.38081 453.68063 496.1705 453.76563 495.98047 453.76562 C 495.60041 453.76562 495.2004 453.88582 494.83984 453.76562 C 494.58489 453.68064 494.45956 453.38534 494.26953 453.19531 C 493.88947 452.81525 493.60965 452.29507 493.12891 452.05469 C 492.78897 451.88473 492.36291 452.12919 491.99023 452.05469 C 491.40097 451.93684 490.86229 451.63013 490.2793 451.48438 C 489.33926 451.24936 488.36973 451.14907 487.42969 450.91406 C 486.13569 450.59056 483.91344 449.59743 482.86719 449.20508 C 482.30453 448.99408 481.72829 448.8248 481.1582 448.63477 C 480.58811 448.44474 480.03653 448.1823 479.44727 448.06445 C 479.07459 447.98995 478.67932 448.13895 478.30664 448.06445 C 477.71738 447.9466 477.18692 447.61199 476.59766 447.49414 C 476.22498 447.41964 475.8099 447.63529 475.45703 447.49414 C 474.82086 447.23967 474.31618 446.73358 473.74609 446.35352 C 473.55606 446.16349 473.41615 445.90339 473.17578 445.7832 C 472.83584 445.61323 472.39767 445.90339 472.03711 445.7832 C 471.634 445.64883 471.29959 445.34921 470.89648 445.21484 C 470.7162 445.15474 470.50645 445.27494 470.32617 445.21484 C 469.04624 444.78819 468.77758 444.15442 467.47656 443.50391 C 463.14328 441.33727 467.13879 443.41946 465.19531 442.93359 C 464.61233 442.78784 464.04232 442.58646 463.48438 442.36328 C 463.08983 442.20546 462.72576 441.983 462.3457 441.79297 C 461.58558 441.41291 460.79319 441.08958 460.06445 440.65234 C 459.83401 440.51407 459.73451 440.20416 459.49414 440.08398 C 459.32417 439.99898 459.10819 440.13008 458.92383 440.08398 C 458.34084 439.93823 457.75233 439.78242 457.21484 439.51367 C 455.50457 438.65854 458.35437 438.94291 455.50391 437.80273 C 454.97459 437.591 454.34604 437.941 453.79297 437.80273 C 453.53225 437.73755 453.47761 437.31742 453.22266 437.23242 C 452.8621 437.11223 452.4527 437.32462 452.08398 437.23242 C 451.25951 437.0263 450.59179 436.40742 449.80273 436.0918 C 449.24478 435.86862 448.64975 435.74466 448.0918 435.52148 C 447.69727 435.36367 447.36981 435.03644 446.95312 434.95312 C 446.3941 434.84132 445.79527 435.09139 445.24219 434.95312 C 444.98147 434.88795 444.92682 434.46781 444.67188 434.38281 C 444.31131 434.26263 443.91131 434.38281 443.53125 434.38281 C 443.34122 434.19278 443.20131 433.93269 442.96094 433.8125 C 442.621 433.64253 442.19099 433.9047 441.82227 433.8125 C 441.23928 433.66676 440.64882 433.51093 440.11133 433.24219 C 439.4985 432.93577 439.05039 432.31822 438.40039 432.10156 C 437.85955 431.92128 437.2571 432.17226 436.69141 432.10156 C 435.72992 431.98137 434.78999 431.72128 433.83984 431.53125 C 432.88969 431.34122 431.88989 431.32081 430.99023 430.96094 C 429.96142 430.54942 429.18987 429.60235 428.13867 429.25195 C 427.41755 429.01158 426.60914 429.37692 425.85938 429.25195 C 425.44022 429.1821 425.13542 428.76494 424.71875 428.68164 C 423.78705 428.4953 422.80084 428.86798 421.86914 428.68164 C 421.27988 428.56379 420.72829 428.30136 420.1582 428.11133 C 419.96816 427.9213 419.84285 427.62602 419.58789 427.54102 C 418.86678 427.30065 417.98652 427.88095 417.30664 427.54102 C 416.8259 427.30065 416.61519 426.69854 416.16797 426.40039 C 416.00985 426.29498 415.78201 426.44649 415.59766 426.40039 C 415.02279 426.25668 413.33586 425.7021 412.74609 425.25977 C 411.26118 424.14609 412.12271 424.10275 410.4668 423.55078 C 409.72349 423.30301 408.91302 423.27146 408.18555 422.98047 C 407.91992 422.87422 406.30548 421.09845 405.90625 420.69922 L 403.05469 417.84961 C 402.75455 417.54948 401.49794 416.44315 401.3457 416.13867 C 401.07696 415.60118 400.92113 415.01268 400.77539 414.42969 C 400.66007 413.96842 400.77539 411.66184 400.77539 411.57812 L 400.77539 411.00781 C 400.77539 410.81778 400.69039 410.60747 400.77539 410.4375 C 400.89557 410.19713 401.2607 410.12409 401.3457 409.86914 C 401.46589 409.50858 401.22551 409.08908 401.3457 408.72852 C 401.43068 408.47357 401.72599 408.34823 401.91602 408.1582 C 402.29608 407.77814 402.77815 407.47847 403.05469 407.01758 C 403.36386 406.50228 403.35626 405.84413 403.625 405.30664 C 403.79782 404.96099 405.72313 403.2715 405.90625 403.02734 C 406.32287 402.47185 406.34744 401.66515 407.04492 401.31641 C 407.58241 401.04767 408.21837 401.01483 408.75586 400.74609 C 409.3522 400.44792 409.87543 399.39194 410.4668 399.03711 C 411.55668 398.38318 412.79684 397.9801 413.88672 397.32617 C 415.06177 396.62114 416.08098 395.65775 417.30664 395.04492 C 417.84413 394.77617 418.48009 394.7453 419.01758 394.47656 C 419.25795 394.35637 419.36428 394.05533 419.58789 393.90625 C 419.94145 393.67055 420.37496 393.57165 420.72852 393.33594 C 420.95213 393.18687 421.07522 392.9147 421.29883 392.76562 C 422.24817 392.13273 423.83811 391.71518 424.71875 391.05469 C 425.14874 390.7322 425.42938 390.23655 425.85938 389.91406 C 426.19931 389.6591 426.61994 389.53573 427 389.3457 L 429.2793 388.20508 C 431.88561 386.90193 428.69114 388.55798 432.13086 386.49414 C 432.8596 386.0569 433.74655 385.88441 434.41016 385.35352 C 435.03972 384.84987 435.45026 384.09175 436.12109 383.64453 C 436.62109 383.3112 437.25998 383.26425 437.83008 383.07422 C 438.51992 382.84427 440.01057 382.43689 440.68164 381.93359 C 441.11163 381.61109 441.34153 381.03334 441.82227 380.79297 C 442.52307 380.44257 443.34144 380.41269 444.10156 380.22266 L 445.24219 379.6543 C 446.99521 378.77779 446.02796 379.31925 448.0918 377.94336 C 448.26176 377.85836 448.47775 377.98946 448.66211 377.94336 C 449.2451 377.79761 449.83556 377.64179 450.37305 377.37305 C 450.61342 377.25286 450.6884 376.88773 450.94336 376.80273 C 453.55115 375.93346 450.35179 378.29713 453.79297 376.23242 C 454.25386 375.95589 454.48638 375.38994 454.93359 375.0918 C 455.09171 374.98639 455.31955 375.1379 455.50391 375.0918 C 456.08689 374.94605 456.64475 374.71347 457.21484 374.52344 C 458.43852 374.11555 459.01591 374.01194 460.06445 373.38281 C 460.65198 373.0303 461.18787 372.5947 461.77539 372.24219 C 462.13976 372.02357 462.5605 371.90758 462.91406 371.67188 C 463.13766 371.52281 463.244 371.22175 463.48438 371.10156 C 463.65435 371.01656 463.88472 371.18656 464.05469 371.10156 C 464.29506 370.98138 464.38463 370.65144 464.625 370.53125 C 464.79497 370.44625 465.00528 370.53125 465.19531 370.53125 L 466.90625 369.39258 C 467.27062 369.17396 467.66485 369.0123 468.04492 368.82227 C 468.42498 368.63224 468.78243 368.38632 469.18555 368.25195 C 470.62502 367.77216 468.59248 369.40964 470.89648 367.68164 C 471.32647 367.35915 471.60712 366.86352 472.03711 366.54102 C 473.03337 365.79383 473.73699 365.97526 474.88672 365.40039 C 475.57083 365.05833 475.91355 364.03347 476.59766 363.69141 C 477.29846 363.34101 478.36315 364.25291 478.87695 363.12109 C 479.10056 362.97202 479.22366 362.69985 479.44727 362.55078 C 479.80083 362.31507 480.24795 362.23542 480.58789 361.98047 C 481.01788 361.65797 481.26763 361.11638 481.72852 360.83984 C 483.64474 359.68966 483.03988 360.85291 484.57812 359.69922 C 485.22312 359.21548 485.64407 358.47397 486.28906 357.99023 C 486.83719 357.57913 487.42796 357.22967 487.99805 356.84961 C 488.37812 356.65958 488.79873 356.53426 489.13867 356.2793 C 489.56866 355.95681 489.89924 355.51873 490.2793 355.13867 L 493.69922 352.85938 C 493.98956 352.78678 494.12975 352.75282 494.35156 352.69727 A 204.28572 204.28572 0 0 0 372.85742 312.36133 z M 216.55664 385.11328 A 204.28572 204.28572 0 0 0 216.38867 385.33594 C 216.54991 386.0554 216.72381 386.73477 217.20508 386.49414 C 217.70618 386.24359 217.0613 385.69699 216.55664 385.11328 z M 341.375 592.82812 C 341.72626 592.83264 341.98245 592.84311 342.05469 592.86719 C 342.30964 592.95217 342.38463 593.31731 342.625 593.4375 C 342.79497 593.5225 343.00528 593.4375 343.19531 593.4375 C 343.80773 593.4375 346.35706 593.33423 346.61523 593.4375 C 347.11427 593.63712 347.25682 594.37851 347.75586 594.57812 C 348.28518 594.78985 348.89671 594.57812 349.4668 594.57812 L 351.74609 594.57812 L 356.87695 594.57812 C 357.27061 594.57812 358.98487 594.49143 359.1582 594.57812 C 359.39857 594.69831 359.48815 595.02825 359.72852 595.14844 C 359.89849 595.23344 360.1088 595.14844 360.29883 595.14844 C 360.86893 595.14844 361.45474 595.01017 362.00781 595.14844 C 363.08279 595.41718 362.64236 598.45227 364.85938 596.85938 L 367.13867 598.56836 C 367.3287 598.56836 367.53901 598.48336 367.70898 598.56836 C 368.39309 598.91042 368.73581 599.93724 369.41992 600.2793 C 369.58989 600.3643 369.8002 600.2793 369.99023 600.2793 C 370.37029 600.2793 370.7703 600.15911 371.13086 600.2793 C 371.38581 600.36428 371.45885 600.72942 371.69922 600.84961 C 371.86919 600.93461 372.08925 600.78951 372.26953 600.84961 C 372.67265 600.98398 373.00704 601.28555 373.41016 601.41992 C 373.59043 601.48002 373.8105 601.33492 373.98047 601.41992 C 374.22084 601.54011 374.31041 601.87005 374.55078 601.99023 C 375.00685 602.21827 375.80564 601.7622 376.26172 601.99023 C 376.74246 602.23061 376.95317 602.83076 377.40039 603.12891 C 377.75395 603.36461 378.16095 603.50919 378.54102 603.69922 C 378.73105 603.69922 378.94136 603.61422 379.11133 603.69922 C 379.3517 603.81941 379.44127 604.14935 379.68164 604.26953 C 379.85161 604.35453 380.08198 604.18453 380.25195 604.26953 C 380.49232 604.38972 380.5819 604.71966 380.82227 604.83984 C 380.99224 604.92484 381.22261 604.75484 381.39258 604.83984 C 381.95356 605.12034 383.11088 606.8406 383.67188 607.12109 C 383.84184 607.20609 384.06191 607.06099 384.24219 607.12109 C 385.28517 607.46875 385.78959 608.09623 386.52344 608.83008 C 387.86041 610.16705 386.11903 608.69593 388.23242 609.40039 C 388.48738 609.48538 388.57912 609.82162 388.80273 609.9707 C 389.15628 610.2064 389.54024 610.40665 389.94336 610.54102 C 390.12364 610.60112 390.35556 610.43561 390.51367 610.54102 C 390.96089 610.83916 391.27424 611.30158 391.6543 611.68164 C 391.84433 611.87167 391.98229 612.12982 392.22266 612.25 C 392.39263 612.335 392.61269 612.1899 392.79297 612.25 C 393.19609 612.38438 393.52135 612.71725 393.93359 612.82031 C 394.3023 612.91251 394.69416 612.82031 395.07422 612.82031 C 395.26425 612.82031 395.47456 612.73531 395.64453 612.82031 C 395.88491 612.94049 396.02481 613.2006 396.21484 613.39062 C 396.5949 613.77069 396.9063 614.23311 397.35352 614.53125 C 397.51164 614.63666 397.75386 614.44625 397.92383 614.53125 C 398.1642 614.65144 398.30411 614.91152 398.49414 615.10156 C 398.68418 615.10156 398.88417 615.04146 399.06445 615.10156 C 399.46756 615.23593 399.82502 615.48185 400.20508 615.67188 C 400.58514 615.8619 400.99214 616.00649 401.3457 616.24219 C 401.79291 616.54034 402.00363 617.14049 402.48438 617.38086 C 404.16204 618.2197 401.73424 616.06041 403.625 617.95117 L 405.90625 620.23242 C 406.28632 620.61248 406.74677 620.92583 407.04492 621.37305 C 407.28062 621.72661 407.4252 622.13165 407.61523 622.51172 C 407.80526 622.89178 408.05118 623.24922 408.18555 623.65234 C 408.30574 624.0129 408.18555 624.41291 408.18555 624.79297 L 408.18555 628.21289 L 408.18555 629.35352 C 408.18555 629.54355 408.12545 629.74356 408.18555 629.92383 C 408.31993 630.32695 408.6528 630.65221 408.75586 631.06445 C 408.94497 631.82089 408.53214 633.81322 408.75586 634.48438 C 408.84084 634.73934 409.24117 634.79973 409.32617 635.05469 C 409.43735 635.38823 409.32617 637.98528 409.32617 638.47461 L 409.32617 645.31641 L 409.32617 649.30664 L 409.32617 650.44727 C 409.32617 650.6373 409.43158 650.85946 409.32617 651.01758 C 409.02802 651.4648 408.42593 651.67746 408.18555 652.1582 C 408.01558 652.49814 408.30574 652.93632 408.18555 653.29688 C 407.77829 654.51866 407.63442 654.06557 407.5918 653.70898 C 407.60298 653.90161 407.61523 654.19347 407.61523 655.00781 C 407.51217 655.42005 407.23495 655.76838 407.04492 656.14844 C 406.85489 656.5285 406.73151 656.94913 406.47656 657.28906 C 406.15406 657.71905 405.65843 657.99774 405.33594 658.42773 C 405.08099 658.76767 404.95565 659.1883 404.76562 659.56836 C 403.9268 661.24602 403.92267 661.34795 401.91602 661.84961 C 401.43026 661.97105 400.70771 661.84961 400.20508 661.84961 L 396.21484 661.84961 C 395.70284 661.84961 392.90162 661.92201 392.79297 661.84961 C 392.34576 661.55147 392.13504 660.94935 391.6543 660.70898 C 390.51411 660.13888 390.7985 660.99402 389.94336 660.70898 C 389.13713 660.44023 388.46834 659.83711 387.66211 659.56836 C 387.14903 659.39733 386.46621 659.73939 385.95312 659.56836 C 385.55002 659.43399 385.21562 659.13242 384.8125 658.99805 C 384.63222 658.93795 384.41216 659.08305 384.24219 658.99805 C 381.55011 657.65201 387.72093 659.29741 381.96094 657.85742 C 381.42438 657.72328 380.78851 657.99156 380.25195 657.85742 C 379.66896 657.71167 379.09897 657.51224 378.54102 657.28906 C 378.14649 657.13125 377.81706 656.80205 377.40039 656.71875 C 376.84137 656.60695 376.26151 656.71875 375.69141 656.71875 C 375.50138 656.71875 375.28404 656.81655 375.12109 656.71875 C 374.85555 656.55943 372.63616 654.62489 371.69922 654.4375 C 371.14593 654.32685 367.81514 654.4375 367.13867 654.4375 C 366.76406 654.4375 365.75134 654.54472 365.42969 654.4375 C 365.02658 654.30313 364.70129 653.97025 364.28906 653.86719 C 361.15885 653.08464 365.23777 654.91185 362.00781 653.29688 C 361.82753 653.23677 361.59756 653.40229 361.43945 653.29688 C 360.99223 652.99873 360.79788 652.35782 360.29883 652.1582 C 359.76952 651.94648 359.14691 652.27001 358.58789 652.1582 C 358.17122 652.07487 357.86394 651.67119 357.44727 651.58789 C 356.88825 651.47609 356.29731 651.6997 355.73828 651.58789 C 355.32161 651.50456 355.0168 651.08748 354.59766 651.01758 C 353.84788 650.89262 353.07066 651.11188 352.31641 651.01758 C 345.39967 650.15299 353.41351 651.11346 348.89648 649.30664 C 348.36716 649.09491 347.74457 649.41845 347.18555 649.30664 C 346.76888 649.22331 346.4414 648.89414 346.04688 648.73633 C 345.48893 648.51315 344.83594 648.49935 344.33594 648.16602 C 343.66511 647.7188 343.29583 646.90425 342.625 646.45703 C 342.125 646.12369 341.47397 646.1099 340.91602 645.88672 C 340.52149 645.72891 340.16992 645.47422 339.77539 645.31641 C 339.21744 645.09323 338.57975 645.05527 338.06445 644.74609 C 337.60356 644.46956 337.38472 643.882 336.92383 643.60547 C 336.40854 643.29629 335.75233 643.3039 335.21484 643.03516 C 335.03059 642.94303 333.10664 641.01542 332.93359 640.75586 C 332.69789 640.4023 332.59899 639.96879 332.36328 639.61523 C 332.21421 639.39162 331.91316 639.28529 331.79297 639.04492 C 331.70797 638.87495 331.87797 638.64458 331.79297 638.47461 C 330.9237 636.73603 331.34253 639.51858 330.6543 636.76562 C 330.53298 636.28035 330.81793 634.24133 330.6543 633.91406 C 330.53411 633.67369 330.20417 633.58412 330.08398 633.34375 C 329.99898 633.17378 330.08398 632.96347 330.08398 632.77344 L 330.08398 631.06445 L 330.08398 628.7832 C 330.08398 628.40314 330.17618 628.01129 330.08398 627.64258 C 329.93824 627.05959 329.65942 626.51658 329.51367 625.93359 C 329.42147 625.56487 329.63386 625.15353 329.51367 624.79297 C 329.3793 624.38986 329.04642 624.06457 328.94336 623.65234 C 328.73 622.79891 329.12386 621.13494 328.94336 620.23242 C 328.82551 619.64316 328.47185 619.11423 328.37305 618.52148 C 328.24808 617.7717 328.37305 617.00231 328.37305 616.24219 L 328.37305 610.54102 L 328.37305 605.98047 C 328.37305 605.41038 328.26124 604.82855 328.37305 604.26953 C 328.7512 602.37877 328.90557 602.94017 329.51367 601.41992 C 329.73685 600.86197 329.8608 600.26693 330.08398 599.70898 C 330.24179 599.31445 330.49648 598.96289 330.6543 598.56836 C 330.80272 598.1973 331.34731 596.1644 331.79297 595.71875 C 332.27745 595.23426 332.95577 594.98923 333.50391 594.57812 C 334.074 594.15055 334.64475 593.15223 335.21484 592.86719 C 335.30404 592.82259 337.90507 592.86719 338.06445 592.86719 C 338.41399 592.86719 340.32123 592.81458 341.375 592.82812 z "
       style="color:#000000;clip-rule:nonzero;display:inline;overflow:visible;visibility:visible;opacity:1;isolation:auto;mix-blend-mode:normal;color-interpolation:sRGB;color-interpolation-filters:linearRGB;solid-color:#000000;solid-opacity:1;fill:#294ac6;fill-opacity:1;fill-rule:nonzero;stroke:none;stroke-width:5;stroke-linecap:round;stroke-linejoin:miter;stroke-miterlimit:4;stroke-dasharray:none;stroke-dashoffset:0;stroke-opacity:1;color-rendering:auto;image-rendering:auto;shape-rendering:auto;text-rendering:auto;enable-background:accumulate" />
    <rect
       transform="matrix(0.80141926,-0.59810298,0.59810298,0.80141926,0,0)"
       y="346.03558"
       x="-109.57065"
       height="37.582138"
       width="106.88405"
       id="rect4137-3"
       style="color:#000000;clip-rule:nonzero;display:inline;overflow:visible;visibility:visible;opacity:1;isolation:auto;mix-blend-mode:normal;color-interpolation:sRGB;color-interpolation-filters:linearRGB;solid-color:#000000;solid-opacity:1;fill:#3e50ab;fill-opacity:1;fill-rule:nonzero;stroke:none;stroke-width:5;stroke-linecap:round;stroke-linejoin:miter;stroke-miterlimit:4;stroke-dasharray:none;stroke-dashoffset:0;stroke-opacity:1;color-rendering:auto;image-rendering:auto;shape-rendering:auto;text-rendering:auto;enable-background:accumulate" />
    <ellipse
       transform="matrix(0.81993522,-0.57245632,0.53156674,0.84701641,0,0)"
       ry="21.445082"
       rx="31.705851"
       cy="326.82465"
       cx="45.798866"
       id="path4154"
       style="color:#000000;clip-rule:nonzero;display:inline;overflow:visible;visibility:visible;opacity:1;isolation:auto;mix-blend-mode:normal;color-interpolation:sRGB;color-interpolation-filters:linearRGB;solid-color:#000000;solid-opacity:1;fill:#969696;fill-opacity:1;fill-rule:nonzero;stroke:none;stroke-width:5;stroke-linecap:round;stroke-linejoin:miter;stroke-miterlimit:4;stroke-dasharray:none;stroke-dashoffset:0;stroke-opacity:1;color-rendering:auto;image-rendering:auto;shape-rendering:auto;text-rendering:auto;enable-background:accumulate" />
    <rect
       transform="matrix(0.79075962,-0.6121268,0.6121268,0.79075962,0,0)"
       y="327.39584"
       x="-34.722355"
       height="74.412407"
       width="92.34153"
       id="rect4135"
       style="color:#000000;clip-rule:nonzero;display:inline;overflow:visible;visibility:visible;opacity:1;isolation:auto;mix-blend-mode:normal;color-interpolation:sRGB;color-interpolation-filters:linearRGB;solid-color:#000000;solid-opacity:1;fill:#f9c445;fill-opacity:1;fill-rule:nonzero;stroke:none;stroke-width:5;stroke-linecap:round;stroke-linejoin:miter;stroke-miterlimit:4;stroke-dasharray:none;stroke-dashoffset:0;stroke-opacity:1;color-rendering:auto;image-rendering:auto;shape-rendering:auto;text-rendering:auto;enable-background:accumulate" />
    <rect
       transform="matrix(0.79075962,-0.6121268,0.6121268,0.79075962,0,0)"
       y="327.39584"
       x="36.073353"
       height="74.412445"
       width="21.545803"
       id="rect4135-6"
       style="color:#000000;clip-rule:nonzero;display:inline;overflow:visible;visibility:visible;opacity:1;isolation:auto;mix-blend-mode:normal;color-interpolation:sRGB;color-interpolation-filters:linearRGB;solid-color:#000000;solid-opacity:1;fill:#d29f25;fill-opacity:1;fill-rule:nonzero;stroke:none;stroke-width:5;stroke-linecap:round;stroke-linejoin:miter;stroke-miterlimit:4;stroke-dasharray:none;stroke-dashoffset:0;stroke-opacity:1;color-rendering:auto;image-rendering:auto;shape-rendering:auto;text-rendering:auto;enable-background:accumulate" />
    <rect
       transform="matrix(0.80141926,-0.59810298,0.59810298,0.80141926,0,0)"
       y="343.97531"
       x="48.571037"
       height="35.713177"
       width="119.74901"
       id="rect4137"
       style="color:#000000;clip-rule:nonzero;display:inline;overflow:visible;visibility:visible;opacity:1;isolation:auto;mix-blend-mode:normal;color-interpolation:sRGB;color-interpolation-filters:linearRGB;solid-color:#000000;solid-opacity:1;fill:#3e50ab;fill-opacity:1;fill-rule:nonzero;stroke:none;stroke-width:5;stroke-linecap:round;stroke-linejoin:miter;stroke-miterlimit:4;stroke-dasharray:none;stroke-dashoffset:0;stroke-opacity:1;color-rendering:auto;image-rendering:auto;shape-rendering:auto;text-rendering:auto;enable-background:accumulate" />
    <path
       id="path4156"
       d="m 199.47501,234.16003 -17.8707,-41.30903 18.84306,13.04301 -18.52272,-54.4626 31.26525,61.47879 -15.62554,-1.3352 z"
       style="fill:#fffc65;fill-opacity:1;fill-rule:evenodd;stroke:none;stroke-width:1px;stroke-linecap:butt;stroke-linejoin:miter;stroke-opacity:1" />
  </g>
</svg>
